<mxfile host="www.draw.io" modified="2019-10-23T01:07:12.194Z" agent="Mozilla/5.0 (Windows NT 10.0; Win64; x64) AppleWebKit/537.36 (KHTML, like Gecko) Chrome/77.0.3865.120 Safari/537.36" etag="RJ_VDLSy7_9p9Lu61_lm" version="12.1.3" type="github" pages="1">
  <diagram id="neq9IHF9GC2Dk0sKbVki" name="第 1 页">
    <mxGraphModel dx="1088" dy="578" grid="1" gridSize="10" guides="1" tooltips="1" connect="1" arrows="1" fold="1" page="1" pageScale="1" pageWidth="827" pageHeight="1169" math="0" shadow="0">
      <root>
        <mxCell id="0"/>
        <mxCell id="1" parent="0"/>
        <mxCell id="83gl4m5M_KtwUHofdOuO-1" value="" style="shape=process;whiteSpace=wrap;html=1;backgroundOutline=1;" vertex="1" parent="1">
          <mxGeometry x="150" y="220" width="120" height="50" as="geometry"/>
        </mxCell>
        <mxCell id="83gl4m5M_KtwUHofdOuO-2" value="" style="ellipse;whiteSpace=wrap;html=1;" vertex="1" parent="1">
          <mxGeometry x="490" y="100" width="120" height="80" as="geometry"/>
        </mxCell>
        <mxCell id="83gl4m5M_KtwUHofdOuO-3" value="&lt;h1&gt;Heading&lt;/h1&gt;&lt;p&gt;Lorem ipsum dolor sit amet, consectetur adipisicing elit, sed do eiusmod tempor incididunt ut labore et dolore magna aliqua.&lt;/p&gt;" style="text;html=1;strokeColor=none;fillColor=none;spacing=5;spacingTop=-20;whiteSpace=wrap;overflow=hidden;rounded=0;" vertex="1" parent="1">
          <mxGeometry x="413" y="410" width="190" height="120" as="geometry"/>
        </mxCell>
        <mxCell id="83gl4m5M_KtwUHofdOuO-4" value="&lt;ul&gt;&lt;li&gt;Value 1&lt;/li&gt;&lt;li&gt;Value 2&lt;/li&gt;&lt;li&gt;Value 3&lt;/li&gt;&lt;/ul&gt;" style="text;strokeColor=none;fillColor=none;html=1;whiteSpace=wrap;verticalAlign=middle;overflow=hidden;" vertex="1" parent="1">
          <mxGeometry x="290" y="60" width="100" height="80" as="geometry"/>
        </mxCell>
        <mxCell id="83gl4m5M_KtwUHofdOuO-5" value="" style="endArrow=classic;html=1;exitX=0.5;exitY=0;exitDx=0;exitDy=0;entryX=0;entryY=0.5;entryDx=0;entryDy=0;" edge="1" parent="1" source="83gl4m5M_KtwUHofdOuO-1" target="83gl4m5M_KtwUHofdOuO-4">
          <mxGeometry width="50" height="50" relative="1" as="geometry">
            <mxPoint x="150" y="180" as="sourcePoint"/>
            <mxPoint x="200" y="130" as="targetPoint"/>
            <Array as="points">
              <mxPoint x="210" y="100"/>
            </Array>
          </mxGeometry>
        </mxCell>
      </root>
    </mxGraphModel>
  </diagram>
</mxfile>
